<mxfile host="drawio-plugin" modified="2021-05-05T08:26:36.269Z" agent="5.0 (Macintosh; Intel Mac OS X 11_3_0) AppleWebKit/537.36 (KHTML, like Gecko) Chrome/87.0.4280.141 Safari/537.36" etag="8V9VQZGlN7K9YygAeiIT" version="13.7.9" type="embed"><diagram id="Y4ZGUaKh9JU0VlUbL2ps" name="Page-1"><mxGraphModel dx="1167" dy="760" grid="1" gridSize="10" guides="1" tooltips="1" connect="1" arrows="1" fold="1" page="1" pageScale="1" pageWidth="850" pageHeight="1100" math="0" shadow="0"><root><mxCell id="0"/><mxCell id="1" parent="0"/><mxCell id="38" style="edgeStyle=orthogonalEdgeStyle;rounded=0;orthogonalLoop=1;jettySize=auto;html=1;entryX=0;entryY=0.5;entryDx=0;entryDy=0;strokeColor=#0B4D6A;" parent="1" source="44" target="20" edge="1"><mxGeometry relative="1" as="geometry"/></mxCell><mxCell id="8" value="REV_BRP" style="shape=ext;rounded=1;html=1;whiteSpace=wrap;verticalAlign=top;fillColor=#09555B;strokeColor=#BAC8D3;fontColor=#EEEEEE;" parent="1" vertex="1"><mxGeometry x="275" y="250" width="130" height="230" as="geometry"/></mxCell><mxCell id="2" value="" style="shape=datastore;whiteSpace=wrap;html=1;fillColor=#09555B;strokeColor=#BAC8D3;fontColor=#EEEEEE;" parent="1" vertex="1"><mxGeometry x="285" y="370" width="70" height="60" as="geometry"/></mxCell><mxCell id="3" value="ESMV" style="swimlane;html=1;horizontal=0;startSize=20;fillColor=#09555B;strokeColor=#BAC8D3;fontColor=#EEEEEE;" parent="1" vertex="1"><mxGeometry x="30" y="110" width="80" height="620" as="geometry"/></mxCell><mxCell id="5" value="" style="shape=datastore;whiteSpace=wrap;html=1;fillColor=#09555B;strokeColor=#BAC8D3;fontColor=#EEEEEE;" parent="1" vertex="1"><mxGeometry x="300" y="380" width="60" height="60" as="geometry"/></mxCell><mxCell id="6" value="" style="shape=datastore;whiteSpace=wrap;html=1;fillColor=#09555B;strokeColor=#BAC8D3;fontColor=#EEEEEE;" parent="1" vertex="1"><mxGeometry x="310" y="390" width="60" height="60" as="geometry"/></mxCell><mxCell id="7" value="" style="shape=datastore;whiteSpace=wrap;html=1;fillColor=#09555B;strokeColor=#BAC8D3;fontColor=#EEEEEE;" parent="1" vertex="1"><mxGeometry x="325" y="400" width="50" height="60" as="geometry"/></mxCell><mxCell id="37" style="edgeStyle=orthogonalEdgeStyle;rounded=0;orthogonalLoop=1;jettySize=auto;html=1;entryX=0;entryY=0.5;entryDx=0;entryDy=0;strokeColor=#0B4D6A;" parent="1" source="60" target="20" edge="1"><mxGeometry relative="1" as="geometry"/></mxCell><mxCell id="9" value="REV_POD&lt;br&gt;REV_RDP" style="shape=ext;rounded=1;html=1;whiteSpace=wrap;verticalAlign=top;fillColor=#09555B;strokeColor=#BAC8D3;fontColor=#EEEEEE;" parent="1" vertex="1"><mxGeometry x="130" y="510" width="240" height="220" as="geometry"/></mxCell><mxCell id="10" value="" style="shape=datastore;whiteSpace=wrap;html=1;fillColor=#09555B;strokeColor=#BAC8D3;fontColor=#EEEEEE;" parent="1" vertex="1"><mxGeometry x="150" y="595" width="70" height="60" as="geometry"/></mxCell><mxCell id="11" value="" style="shape=datastore;whiteSpace=wrap;html=1;fillColor=#09555B;strokeColor=#BAC8D3;fontColor=#EEEEEE;" parent="1" vertex="1"><mxGeometry x="165" y="605" width="60" height="60" as="geometry"/></mxCell><mxCell id="12" value="" style="shape=datastore;whiteSpace=wrap;html=1;fillColor=#09555B;strokeColor=#BAC8D3;fontColor=#EEEEEE;" parent="1" vertex="1"><mxGeometry x="175" y="615" width="60" height="60" as="geometry"/></mxCell><mxCell id="13" value="" style="shape=datastore;whiteSpace=wrap;html=1;fillColor=#09555B;strokeColor=#BAC8D3;fontColor=#EEEEEE;" parent="1" vertex="1"><mxGeometry x="185" y="625" width="60" height="60" as="geometry"/></mxCell><mxCell id="48" style="edgeStyle=orthogonalEdgeStyle;rounded=0;orthogonalLoop=1;jettySize=auto;html=1;exitX=1;exitY=0.5;exitDx=0;exitDy=0;entryX=0;entryY=0.5;entryDx=0;entryDy=0;strokeColor=#0B4D6A;" parent="1" source="14" target="8" edge="1"><mxGeometry relative="1" as="geometry"><Array as="points"><mxPoint x="260" y="295"/><mxPoint x="260" y="365"/></Array></mxGeometry></mxCell><mxCell id="14" value="REV_PG" style="shape=ext;rounded=1;html=1;whiteSpace=wrap;verticalAlign=top;fillColor=#09555B;strokeColor=#BAC8D3;fontColor=#EEEEEE;" parent="1" vertex="1"><mxGeometry x="125" y="110" width="120" height="370" as="geometry"/></mxCell><mxCell id="15" value="" style="shape=datastore;whiteSpace=wrap;html=1;fillColor=#09555B;strokeColor=#BAC8D3;fontColor=#EEEEEE;" parent="1" vertex="1"><mxGeometry x="135" y="350" width="70" height="60" as="geometry"/></mxCell><mxCell id="16" value="" style="shape=datastore;whiteSpace=wrap;html=1;fillColor=#09555B;strokeColor=#BAC8D3;fontColor=#EEEEEE;" parent="1" vertex="1"><mxGeometry x="150" y="360" width="60" height="60" as="geometry"/></mxCell><mxCell id="17" value="" style="shape=datastore;whiteSpace=wrap;html=1;fillColor=#09555B;strokeColor=#BAC8D3;fontColor=#EEEEEE;" parent="1" vertex="1"><mxGeometry x="160" y="370" width="60" height="60" as="geometry"/></mxCell><mxCell id="18" value="" style="shape=datastore;whiteSpace=wrap;html=1;fillColor=#09555B;strokeColor=#BAC8D3;fontColor=#EEEEEE;" parent="1" vertex="1"><mxGeometry x="170" y="380" width="60" height="60" as="geometry"/></mxCell><mxCell id="47" style="edgeStyle=orthogonalEdgeStyle;rounded=0;orthogonalLoop=1;jettySize=auto;html=1;entryX=0.989;entryY=0.321;entryDx=0;entryDy=0;entryPerimeter=0;strokeColor=#0B4D6A;" parent="1" source="20" target="14" edge="1"><mxGeometry relative="1" as="geometry"><Array as="points"><mxPoint x="820" y="490"/><mxPoint x="820" y="229"/></Array></mxGeometry></mxCell><mxCell id="20" value="REV_SBB" style="shape=ext;rounded=1;html=1;whiteSpace=wrap;verticalAlign=top;fillColor=#09555B;strokeColor=#BAC8D3;fontColor=#EEEEEE;" parent="1" vertex="1"><mxGeometry x="620" y="250" width="160" height="480" as="geometry"/></mxCell><mxCell id="21" value="Налоговая" style="shape=datastore;whiteSpace=wrap;html=1;direction=south;fillColor=#09555B;strokeColor=#BAC8D3;fontColor=#EEEEEE;" parent="1" vertex="1"><mxGeometry x="625" y="565" width="150" height="145" as="geometry"/></mxCell><mxCell id="22" value="" style="shape=datastore;whiteSpace=wrap;html=1;fillColor=#09555B;strokeColor=#BAC8D3;fontColor=#EEEEEE;" parent="1" vertex="1"><mxGeometry x="660" y="407" width="60" height="60" as="geometry"/></mxCell><mxCell id="23" value="" style="shape=datastore;whiteSpace=wrap;html=1;fillColor=#09555B;strokeColor=#BAC8D3;fontColor=#EEEEEE;" parent="1" vertex="1"><mxGeometry x="670" y="417" width="60" height="60" as="geometry"/></mxCell><mxCell id="24" value="Тофк" style="shape=datastore;whiteSpace=wrap;html=1;fillColor=#09555B;strokeColor=#BAC8D3;fontColor=#EEEEEE;" parent="1" vertex="1"><mxGeometry x="680" y="427" width="60" height="60" as="geometry"/></mxCell><mxCell id="25" value="REV_REP" style="shape=ext;rounded=1;html=1;whiteSpace=wrap;verticalAlign=top;fillColor=#09555B;strokeColor=#BAC8D3;fontColor=#EEEEEE;" parent="1" vertex="1"><mxGeometry x="20" y="760" width="800" height="70" as="geometry"/></mxCell><mxCell id="26" value="Task" style="shape=ext;rounded=1;html=1;whiteSpace=wrap;fillColor=#09555B;strokeColor=#BAC8D3;fontColor=#EEEEEE;" parent="1" vertex="1"><mxGeometry x="135" y="150" width="75" height="50" as="geometry"/></mxCell><mxCell id="27" value="Task" style="shape=ext;rounded=1;html=1;whiteSpace=wrap;fillColor=#09555B;strokeColor=#BAC8D3;fontColor=#EEEEEE;" parent="1" vertex="1"><mxGeometry x="145" y="160" width="75" height="50" as="geometry"/></mxCell><mxCell id="28" value="Task" style="shape=ext;rounded=1;html=1;whiteSpace=wrap;fillColor=#09555B;strokeColor=#BAC8D3;fontColor=#EEEEEE;" parent="1" vertex="1"><mxGeometry x="155" y="170" width="75" height="50" as="geometry"/></mxCell><mxCell id="29" value="Task" style="shape=ext;rounded=1;html=1;whiteSpace=wrap;fillColor=#09555B;strokeColor=#BAC8D3;fontColor=#EEEEEE;" parent="1" vertex="1"><mxGeometry x="285" y="290" width="75" height="50" as="geometry"/></mxCell><mxCell id="30" value="Task" style="shape=ext;rounded=1;html=1;whiteSpace=wrap;fillColor=#09555B;strokeColor=#BAC8D3;fontColor=#EEEEEE;" parent="1" vertex="1"><mxGeometry x="295" y="300" width="75" height="50" as="geometry"/></mxCell><mxCell id="31" value="Task" style="shape=ext;rounded=1;html=1;whiteSpace=wrap;fillColor=#09555B;strokeColor=#BAC8D3;fontColor=#EEEEEE;" parent="1" vertex="1"><mxGeometry x="305" y="310" width="75" height="50" as="geometry"/></mxCell><mxCell id="32" value="Task" style="shape=ext;rounded=1;html=1;whiteSpace=wrap;fillColor=#09555B;strokeColor=#BAC8D3;fontColor=#EEEEEE;" parent="1" vertex="1"><mxGeometry x="245" y="555" width="75" height="50" as="geometry"/></mxCell><mxCell id="33" value="Task" style="shape=ext;rounded=1;html=1;whiteSpace=wrap;fillColor=#09555B;strokeColor=#BAC8D3;fontColor=#EEEEEE;" parent="1" vertex="1"><mxGeometry x="255" y="565" width="75" height="50" as="geometry"/></mxCell><mxCell id="34" value="Task" style="shape=ext;rounded=1;html=1;whiteSpace=wrap;fillColor=#09555B;strokeColor=#BAC8D3;fontColor=#EEEEEE;" parent="1" vertex="1"><mxGeometry x="265" y="575" width="75" height="50" as="geometry"/></mxCell><mxCell id="35" value="Task" style="shape=ext;rounded=1;html=1;whiteSpace=wrap;fillColor=#09555B;strokeColor=#BAC8D3;fontColor=#EEEEEE;" parent="1" vertex="1"><mxGeometry x="275" y="585" width="75" height="50" as="geometry"/></mxCell><mxCell id="39" value="" style="shape=note;whiteSpace=wrap;size=16;html=1;dropTarget=0;fillColor=#09555B;strokeColor=#BAC8D3;fontColor=#EEEEEE;" parent="1" vertex="1"><mxGeometry x="440" y="590" width="40" height="60" as="geometry"/></mxCell><mxCell id="40" value="" style="html=1;shape=singleArrow;arrowWidth=0.4;arrowSize=0.4;outlineConnect=0;fillColor=#09555B;strokeColor=#BAC8D3;fontColor=#EEEEEE;" parent="39" vertex="1"><mxGeometry width="14" height="14" relative="1" as="geometry"><mxPoint x="2" y="2" as="offset"/></mxGeometry></mxCell><mxCell id="41" value="" style="html=1;whiteSpace=wrap;shape=parallelMarker;outlineConnect=0;fillColor=#09555B;strokeColor=#BAC8D3;fontColor=#EEEEEE;" parent="39" vertex="1"><mxGeometry x="0.5" y="1" width="14" height="14" relative="1" as="geometry"><mxPoint x="-7" y="-14" as="offset"/></mxGeometry></mxCell><mxCell id="43" style="edgeStyle=orthogonalEdgeStyle;rounded=0;orthogonalLoop=1;jettySize=auto;html=1;entryX=0;entryY=0.5;entryDx=0;entryDy=0;strokeColor=#0B4D6A;" parent="1" source="9" target="39" edge="1"><mxGeometry relative="1" as="geometry"><mxPoint x="370" y="620" as="sourcePoint"/><mxPoint x="620" y="490" as="targetPoint"/></mxGeometry></mxCell><mxCell id="44" value="" style="shape=note;whiteSpace=wrap;size=16;html=1;dropTarget=0;fillColor=#09555B;strokeColor=#BAC8D3;fontColor=#EEEEEE;" parent="1" vertex="1"><mxGeometry x="440" y="335" width="40" height="60" as="geometry"/></mxCell><mxCell id="45" value="" style="html=1;shape=singleArrow;arrowWidth=0.4;arrowSize=0.4;outlineConnect=0;fillColor=#09555B;strokeColor=#BAC8D3;fontColor=#EEEEEE;" parent="44" vertex="1"><mxGeometry width="14" height="14" relative="1" as="geometry"><mxPoint x="12" y="2" as="offset"/></mxGeometry></mxCell><mxCell id="46" value="" style="html=1;whiteSpace=wrap;shape=parallelMarker;outlineConnect=0;fillColor=#09555B;strokeColor=#BAC8D3;fontColor=#EEEEEE;" parent="44" vertex="1"><mxGeometry x="0.5" y="1" width="14" height="14" relative="1" as="geometry"><mxPoint x="-7" y="-14" as="offset"/></mxGeometry></mxCell><mxCell id="49" style="edgeStyle=orthogonalEdgeStyle;rounded=0;orthogonalLoop=1;jettySize=auto;html=1;entryX=0;entryY=0.5;entryDx=0;entryDy=0;strokeColor=#0B4D6A;" parent="1" source="8" target="44" edge="1"><mxGeometry relative="1" as="geometry"><mxPoint x="405" y="365" as="sourcePoint"/><mxPoint x="620" y="490" as="targetPoint"/></mxGeometry></mxCell><mxCell id="50" value="Task" style="shape=ext;rounded=1;html=1;whiteSpace=wrap;fillColor=#09555B;strokeColor=#BAC8D3;fontColor=#EEEEEE;" parent="1" vertex="1"><mxGeometry x="625" y="280" width="75" height="50" as="geometry"/></mxCell><mxCell id="51" value="Task" style="shape=ext;rounded=1;html=1;whiteSpace=wrap;fillColor=#09555B;strokeColor=#BAC8D3;fontColor=#EEEEEE;" parent="1" vertex="1"><mxGeometry x="635" y="290" width="75" height="50" as="geometry"/></mxCell><mxCell id="52" value="Task" style="shape=ext;rounded=1;html=1;whiteSpace=wrap;fillColor=#09555B;strokeColor=#BAC8D3;fontColor=#EEEEEE;" parent="1" vertex="1"><mxGeometry x="645" y="300" width="75" height="50" as="geometry"/></mxCell><mxCell id="53" value="Task" style="shape=ext;rounded=1;html=1;whiteSpace=wrap;fillColor=#09555B;strokeColor=#BAC8D3;fontColor=#EEEEEE;" parent="1" vertex="1"><mxGeometry x="655" y="310" width="75" height="50" as="geometry"/></mxCell><mxCell id="54" value="Task" style="shape=ext;rounded=1;html=1;whiteSpace=wrap;fillColor=#09555B;strokeColor=#BAC8D3;fontColor=#EEEEEE;" parent="1" vertex="1"><mxGeometry x="635" y="500" width="125" height="60" as="geometry"/></mxCell><mxCell id="55" value="Task" style="shape=ext;rounded=1;html=1;whiteSpace=wrap;fillColor=#09555B;strokeColor=#BAC8D3;fontColor=#EEEEEE;" parent="1" vertex="1"><mxGeometry x="665" y="320" width="75" height="50" as="geometry"/></mxCell><mxCell id="56" value="Task" style="shape=ext;rounded=1;html=1;whiteSpace=wrap;fillColor=#09555B;strokeColor=#BAC8D3;fontColor=#EEEEEE;" parent="1" vertex="1"><mxGeometry x="675" y="330" width="75" height="50" as="geometry"/></mxCell><mxCell id="60" value="" style="ellipse;whiteSpace=wrap;html=1;aspect=fixed;fillColor=#09555B;strokeColor=#BAC8D3;fontColor=#EEEEEE;" parent="1" vertex="1"><mxGeometry x="590" y="440" width="80" height="80" as="geometry"/></mxCell><mxCell id="61" style="edgeStyle=orthogonalEdgeStyle;rounded=0;orthogonalLoop=1;jettySize=auto;html=1;entryX=0;entryY=0.5;entryDx=0;entryDy=0;strokeColor=#0B4D6A;" parent="1" source="57" target="60" edge="1"><mxGeometry relative="1" as="geometry"><mxPoint x="480" y="620" as="sourcePoint"/><mxPoint x="620" y="490" as="targetPoint"/></mxGeometry></mxCell><mxCell id="57" value="Task" style="shape=ext;rounded=1;html=1;whiteSpace=wrap;fillColor=#09555B;strokeColor=#BAC8D3;fontColor=#EEEEEE;" parent="1" vertex="1"><mxGeometry x="500" y="455" width="75" height="50" as="geometry"/></mxCell><mxCell id="62" style="edgeStyle=orthogonalEdgeStyle;rounded=0;orthogonalLoop=1;jettySize=auto;html=1;entryX=0;entryY=0.5;entryDx=0;entryDy=0;strokeColor=#0B4D6A;" parent="1" source="39" target="57" edge="1"><mxGeometry relative="1" as="geometry"><mxPoint x="480" y="620" as="sourcePoint"/><mxPoint x="590" y="480" as="targetPoint"/></mxGeometry></mxCell></root></mxGraphModel></diagram></mxfile>